<?xml version="1.0" encoding="UTF-8"?>
<svg id="_레이어_2" data-name="레이어 2" xmlns="http://www.w3.org/2000/svg" viewBox="0 0 1024 1024">
  <g id="_레이어_1-2" data-name="레이어 1">
    <rect width="1024" height="1024" style="fill: #101311;"/>
    <g>
      <path d="M137.8557,171.9843c.0849.147,41.8292-24.3853,41.9311-24.2089,1.5137,2.6218-52.8933,31.911-50.9878,35.2113.6049,1.0477,65.8981-39.1935,66.3949-38.3331,2.3215,4.021-67.3676,40.85-65.7143,43.7137.9989,1.7301,68.7427-41.1828,69.3897-40.0622,1.6955,2.9367-66.5141,40.2191-64.8009,43.1863,1.2704,2.2004,77.1004-47.332,78.3207-45.2185,2.3854,4.1317-82.7956,45.9561-79.4962,51.6707,1.3234,2.2922,84.2485-51.8158,85.6233-49.4346,2.8471,4.9313-92.1225,52.4207-89.2907,57.3255,2.0356,3.5257,103.9033-64.6126,105.9056-61.1446,3.0291,5.2465-100.7395,58.1205-98.2215,62.4817,2.3461,4.0635,106.1012-66.288,108.2794-62.5152,4.223,7.3145-111.5512,62.9447-108.4192,68.3694,2.3605,4.0885,115.992-71.863,118.1116-68.1918,4.0478,7.011-106.6037,61.6287-104.1388,65.8981,2.0824,3.6068,108.9846-69.0502,111.6381-64.4543,3.8585,6.6831-109.4193,61.5095-106.1989,67.0874,1.7706,3.0668,118.9346-72.925,120.7784-69.7314,3.5061,6.0728-107.3436,60.2196-104.0836,65.8662,2.1259,3.6822,111.9092-69.2697,113.9266-65.7756,4.369,7.5674-113.8653,63.0229-110.1887,69.391,2.2095,3.827,110.3088-69.5035,112.8275-65.141,3.1091,5.3851-100.2437,57.4739-97.5697,62.1054,1.9049,3.2993,110.2645-69.4871,112.7872-65.1177,3.1946,5.5332-112.9272,62.6738-109.334,68.8975,2.4322,4.2127,117.2809-72.5422,119.3723-68.9197,3.5419,6.1348-110.7876,62.6824-107.733,67.9732,2.581,4.4704,115.9961-72.9043,118.5656-68.4539,4.266,7.3889-105.7926,60.4594-103.0241,65.2545,2.3965,4.1508,108.7669-66.9806,110.5786-63.8426,3.3646,5.8277-102.6347,59.4776-100.2306,63.6417,1.9097,3.3076,104.5293-66.047,106.9962-61.7743,3.7789,6.5452-101.2625,55.6795-97.5568,62.098,2.2031,3.8159,106.633-67.7657,109.3182-63.1149,3.7949,6.5729-109.3724,59.5273-105.3054,66.5716,2.122,3.6755,111.6859-69.8164,113.9958-65.8155,4.2404,7.3445-105.8574,60.4204-103.0558,65.2728,2.6597,4.6067,112.1741-71.1832,114.9538-66.3686,2.7772,4.8103-105.1665,58.3353-101.6348,64.4524,2.6562,4.6007,111.1592-69.1552,113.3145-65.4221,2.4621,4.2645-104.6475,58.5352-101.3321,64.2776,2.3621,4.0913,111.8399-69.5487,113.9954-65.8153,2.7777,4.8111-112.7875,61.6403-108.7817,68.5786,2.5714,4.4538,109.7426-67.6591,111.6042-64.4347,3.2541,5.6363-101.2727,56.6575-97.9879,62.3468,1.9757,3.422,108.0855-68.107,110.5553-63.8292,4.0352,6.9892-110.8719,61.901-107.4578,67.8143,2.4075,4.1699,113.2088-71.4336,115.8383-66.8793,3.0692,5.316-108.2666,61.5863-105.3676,66.6075,2.0615,3.5706,114.6524-72.4461,117.3594-67.7575,2.7601,4.7807-102.6204,58.9141-99.9758,63.4946,1.911,3.31,106.2884-67.1208,108.7804-62.8044,2.4953,4.322-106.9044,60.0595-103.6848,65.636,2.5518,4.4199,106.3772-67.1109,108.8428-62.8404,3.3929,5.8766-100.9613,56.9714-97.8903,62.2905,1.988,3.4432,99.4628-61.0762,101.0439-58.3377,3.2198,5.5769-94.2278,54.2044-91.642,58.6831,1.5666,2.7135,93.6946-56.8028,94.8672-54.7716,3.5911,6.22-96.098,55.3299-93.532,59.7743,1.2226,2.1176,91.9016-56.7875,93.5159-53.9914,3.4493,5.9744-95.9126,54.8708-93.1942,59.5792,1.9205,3.3265,91.0135-55.1687,92.1489-53.2022,4.1021,7.1051-104.4261,56.9119-100.4632,63.7759,1.4985,2.5954,98.0517-60.2034,99.6076-57.5085,3.5044,6.0698-98.1468,56.5478-95.5961,60.9659,1.2148,2.1042,89.0505-55.5837,90.8564-52.4559,3.6303,6.2879-89.4485,52.5279-87.3317,56.1945,1.8946,3.2816,92.0352-56.2529,93.3846-53.9156,2.8695,4.9702-100.9192,57.3599-98.027,62.3694,1.2595,2.1815,97.1395-60.3254,98.9763-57.144,2.9027,5.0276-103.9318,57.5167-100.3543,63.7131,1.799,3.116,94.2215-57.7523,95.6736-55.2372,2.2789,3.9471-96.4869,55.0938-93.7215,59.8836,1.5077,2.6114,94.793-57.8115,96.1279-55.4994,3.7983,6.5788-99.5116,55.3365-96.0951,61.254,1.6905,2.928,90.8285-56.9031,92.7612-53.5557,3.0393,5.2642-97.8663,55.8019-95.0627,60.658,1.5995,2.7704,92.6679-56.625,94.0202-54.2826,2.5208,4.3661-94.0778,54.192-91.5242,58.615,1.1847,2.052,90.783-55.5462,92.1395-53.1967,3.449,5.9739-97.6275,56.6719-95.2603,60.772,1.2935,2.2404,96.6605-59.319,98.1813-56.685,2.9836,5.1677-98.6223,55.1825-95.3614,60.8305,1.6669,2.8872,90.0108-54.7277,91.2058-52.6577,2.375,4.1137-95.583,55.0248-93.0136,59.4749,1.603,2.7765,96.0643-59.7422,97.9174-56.5326,3.8247,6.6246-94.6271,54.8747-92.2318,59.0236,1.1867,2.0554,86.2783-54.2883,88.2163-50.9317,3.6973,6.4039-95.6537,53.9553-92.6036,59.2382,1.799,3.116,92.2052-55.9814,93.3946-53.9214,3.1075,5.3823-92.3784,51.191-88.9502,57.1289,1.68,2.9098,90.2942-56.6051,92.2314-53.2498,3.561,6.1679-95.1288,54.4749-92.4349,59.1408,1.905,3.2995,92.1466-57.4652,93.9932-54.267,2.4048,4.1653-97.9631,53.7783-94.259,60.194,1.8292,3.1683,85.6954-53.7239,87.5347-50.5382,3.0695,5.3165-89.5629,50.6058-86.5851,55.7634,1.2925,2.2387,92.3354-56.6363,93.7758-54.1415,3.5522,6.1526-102.8462,57.6321-99.5901,63.2719,1.619,2.8041,92.0901-55.8061,93.2324-53.8277,3.344,5.792-92.5903,51.3953-89.1976,57.2717,1.6222,2.8098,88.6485-54.1991,89.9553-51.9357,3.0537,5.2892-92.515,52.1811-89.4814,57.4356,1.9404,3.3609,90.3141-56.302,92.1151-53.1827,3.0685,5.3148-94.6076,54.692-92.138,58.9694,1.5859,2.7468,90.2795-55.9846,91.9517-53.0883,3.01,5.2134-101.9573,55.8269-98.1418,62.4357,1.9117,3.3112,92.605-56.4983,93.9183-54.2237,3.6794,6.3729-94.2738,53.5505-91.3934,58.5395,1.8034,3.1236,97.1119-60.1897,98.8968-57.0981,3.5834,6.2067-96.7037,56.068-94.3059,60.2211,1.5519,2.688,89.3924-56.0137,91.299-52.7115,3.3052,5.7247-101,58.6651-98.6528,62.7307,1.6887,2.9249,94.761-58.0727,96.217-55.5509,2.7861,4.8258-99.009,56.1162-96.0557,61.2313,1.208,2.0923,98.4823-60.3152,99.9789-57.7229,3.7948,6.5728-97.813,55.7496-95.0001,60.6218,1.9751,3.421,94.5034-59.0693,96.4553-55.6885,2.9402,5.0925-100.9041,56.9247-97.8272,62.2541,1.5444,2.6749,94.1546-58.5752,95.9798-55.4139,3.0724,5.3216-101.6245,57.3722-98.5613,62.6779,1.8067,3.1294,95.2412-58.9028,96.9366-55.9664,3.6314,6.2897-95.3625,54.0405-92.4221,59.1334,1.2884,2.2316,92.492-56.2535,93.7274-54.1136,2.2657,3.9243-81.8249,45.4955-78.5688,51.1352,1.2315,2.1331,73.0128-44.2473,73.9193-42.6773,2.3966,4.151-71.157,40.4644-68.3893,45.2581.5867,1.0163,69.4738-41.9642,70.2764-40.5741,2.0065,3.4754-62.0529,37.5824-60.3133,40.5954.4803.832,64.0765-38.0905,64.551-37.2686" style="fill: none; stroke: #fff; stroke-linecap: round; stroke-linejoin: round; stroke-width: 3px;"/>
      <g>
        <path d="M629.2641,211.6441c2.6703,4.6251,113.7774-69.8108,115.562-66.7198,4.1791,7.2384-106.573,59.1974-103.063,65.2769,2.3413,4.0553,111.551-68.3005,113.2382-65.3781,3.8495,6.6676-109.0711,59.3865-105.0184,66.4059,2.5132,4.3529,109.8701-68.3014,111.978-64.6505,3.0426,5.2699-104.8948,57.7628-101.1831,64.1916,1.7095,2.9609,111.3055-68.5934,113.181-65.3451,3.2537,5.6356-108.8136,59.0062-104.6606,66.1994,2.1064,3.6483,111.5927-68.7508,113.4645-65.5087,3.5015,6.0648-109.0196,61.1865-105.7592,66.8336,2.5458,4.4094,117.412-74.0213,120.1112-69.3462,2.6437,4.5791-108.0247,58.5001-103.8499,65.7312,1.6246,2.8138,108.4179-66.918,110.2898-63.6758,3.7328,6.4653-109.5147,59.2487-105.2915,66.5636,1.745,3.0223,114.7735-71.5339,117.0552-67.5818,2.619,4.5362-108.3775,58.5998-104.1576,65.9089,1.9717,3.415,106.4695-66.5934,108.688-62.751,3.4693,6.0089-105.9429,60.956-103.3519,65.4438,1.7765,3.077,113.8703-69.6113,115.5453-66.7101,4.1186,7.1336-105.5668,58.3595-101.9455,64.6318,2.6435,4.5787,114.8581-71.6577,117.1723-67.6494,3.6177,6.2661-107.7259,58.9312-103.8124,65.7096,2.7125,4.6982,112.4454-69.3421,114.36-66.0258,2.6109,4.5222-106.4978,61.3945-103.9579,65.7936,1.9565,3.3888,104.3853-65.0406,106.4524-61.4603,3.4663,6.0037-106.9002,59.6603-103.5088,65.5343,2.6665,4.6185,117.8136-72.3183,119.6749-69.0943,3.3647,5.8279-113.2621,63.9776-110.1497,69.3685,1.9803,3.43,114.6884-72.5038,117.4113-67.7875,2.6863,4.6528-110.8307,63.7416-108.2239,68.2566,1.7859,3.0933,113.8461-70.9808,116.1202-67.042,3.0256,5.2406-101.3737,56.2626-97.8927,62.2919,2.1606,3.7422,100.4989-61.7532,102.1141-58.9556,3.2461,5.6224-99.4697,54.5871-95.7392,61.0485,1.6929,2.9321,90.6437-55.2391,91.902-53.0597,2.5538,4.4233-96.324,53.5954-92.9505,59.4385,1.2219,2.1164,88.2339-54.4841,89.7677-51.8274,2.7218,4.7142-89.0523,51.0397-86.3901,55.6508,1.6421,2.8443,91.5023-56.5668,93.1209-53.7634,2.982,5.1649-104.9075,56.971-100.8498,63.9992,1.7748,3.074,98.2166-60.5786,99.8938-57.6737,3.8092,6.5977-101.9679,56.9806-98.6493,62.7287,1.6308,2.8246,91.7495-56.6453,93.3402-53.89,2.4248,4.1998-90.027,50.4306-86.8573,55.9206,1.8124,3.1391,90.1308-56.3824,92.0124-53.1234,2.507,4.3423-98.992,57.5499-96.6638,61.5824,1.6418,2.8437,94.9782-57.5376,96.1481-55.5111,2.7225,4.7155-93.1078,54.3471-90.8638,58.2338,1.4267,2.4711,89.5225-55.0153,90.9642-52.5182,3.5607,6.1673-100.7485,56.2812-97.4319,62.0258,1.2526,2.1696,95.278-58.798,96.9188-55.9561,3.8919,6.741-97.6237,56.741-95.2874,60.7877,1.3416,2.3238,95.9179-59.6416,97.764-56.4441,2.4101,4.1745-95.5121,55.294-93.077,59.5116,1.2003,2.079,88.3814-54.7096,89.976-51.9476,2.7055,4.686-94.1933,53.1188-91.1461,58.3967,1.9676,3.408,90.5269-55.175,91.7867-52.9931,2.9125,5.0445-94.6203,52.7393-91.302,58.4867,1.3815,2.3928,92.0961-55.9697,93.3077-53.8712,3.06,5.3-103.2718,56.8199-99.5576,63.2531,1.3215,2.289,96.5058-58.4409,97.685-56.3985,2.4439,4.233-97.9199,53.5899-94.145,60.1282,1.4881,2.5775,89.9058-55.9578,91.6598-52.9198,3.4523,5.9796-95.8867,54.4942-93.0117,59.4739,1.1319,1.9605,93.6138-58.4328,95.5125-55.1441,3.1912,5.5273-100.1546,56.915-97.2609,61.9271,1.5338,2.6566,95.1324-59.2572,97.0084-56.0078,3.3178,5.7466-101.8004,57.3598-98.6878,62.7509,1.8545,3.212,95.4168-58.1316,96.7343-55.8496,3.5032,6.0677-91.9264,51.7685-88.8612,57.0775,1.6807,2.9111,92.9444-56.3254,94.0979-54.3275,2.5472,4.4119-97.2034,56.3551-94.805,60.5092,1.3633,2.3613,92.0267-57.4565,93.8994-54.2129,4.1688,7.2206-104.1899,57.5596-100.5664,63.8355,1.3037,2.2581,95.8818-59.2775,97.5792-56.3374,3.5191,6.0952-95.7582,52.8899-92.2207,59.0171,1.6015,2.7738,91.5331-56.683,93.1943-53.8057,3.5516,6.1515-97.2733,54.9277-94.2394,60.1826,1.9465,3.3714,90.7637-56.8754,92.7006-53.5207,3.7076,6.4218-96.6566,54.3564-93.5295,59.7728,1.5644,2.7096,96.2696-58.4776,97.5237-56.3054,2.4792,4.2941-103.828,56.9863-100.0468,63.5355,1.3969,2.4196,96.1348-58.3893,97.3844-56.2249" style="fill: none; stroke: #fff; stroke-linecap: round; stroke-linejoin: round; stroke-width: 3px;"/>
        <path d="M580.9071,171.5344c.0849.147,41.8293-24.3853,41.9311-24.2089,1.5135,2.6214-52.8852,31.907-50.98,35.2068.6046,1.0472,65.8906-39.1885,66.3871-38.3286,2.3213,4.0206-67.3608,40.8464-65.7076,43.7098.9986,1.7296,68.7362-41.1786,69.383-40.0583,1.6954,2.9364-66.5084,40.2161-64.7954,43.1831,1.2702,2.2,77.0951-47.3284,78.3151-45.2152,2.3853,4.1314-82.791,45.9539-79.4918,51.6681,1.3233,2.292,84.2442-51.8131,85.6189-49.4321,2.847,4.9311-92.1191,52.419-89.2874,57.3236,2.0355,3.5255,103.9002-64.6105,105.9023-61.1427,3.0671,5.3123-102.0369,58.7966-99.4873,63.2125,2.3923,4.1436,107.3241-67.0932,109.5452-63.246,4.4725,7.7467-118.3005,66.4141-114.9835,72.1593,2.5853,4.4779,122.3544-76.0026,124.6759-71.9817,4.6756,8.0984-123.5505,70.5301-120.7033,75.4616,2.5829,4.4737,124.9114-79.7183,128.2026-74.0178,4.8001,8.3141-136.77,75.4854-132.7636,82.4246,2.4531,4.2489,144.7887-89.4932,147.3432-85.0686,4.7072,8.1531-145.0254,79.3961-140.6486,86.977,3.2538,5.6358,147.4039-92.2344,150.4916-86.8864,6.1721,10.6904-161.948,87.2792-156.754,96.2755,3.7024,6.4128,155.1723-99.3356,159.3928-92.0255,4.8639,8.4245-158.3184,87.518-154.1352,94.7635,1.3502,2.3387,90.9327-56.6296,92.7209-53.5324,2.9075,5.036-102.5382,57.4215-99.2679,63.0858,1.724,2.9861,97.8239-59.9024,99.3064-57.3346,3.219,5.5755-100.4434,57.3533-97.6673,62.1617,1.8295,3.1688,96.6786-60.0237,98.5-56.869,3.8598,6.6854-95.4637,55.1048-92.9588,59.4433,1.6988,2.9423,89.2292-54.4824,90.5135-52.258,3.0356,5.2578-92.3347,54.0738-90.1657,57.8307,1.3537,2.3446,85.1828-53.2186,86.9314-50.1899,3.3995,5.8881-90.826,50.5131-87.4923,56.2872,1.5617,2.705,87.3504-54.8275,89.2538-51.5307,3.4412,5.9604-98.9293,54.3733-95.2413,60.7611,1.5042,2.6054,92.2945-57.0677,93.9319-54.2316,3.8368,6.6455-95.527,55.0719-92.9921,59.4625,1.8854,3.2656,92.9197-58.1979,94.8902-54.7849,2.5093,4.3463-94.7625,53.1153-91.5715,58.6423,1.8829,3.2614,91.7235-56.485,93.2513-53.8387,2.2239,3.852-94.2638,53.2809-91.2692,58.4678,1.6745,2.9003,92.4047-56.8786,93.9327-54.2321,2.5269,4.3767-102.3634,56.4571-98.7192,62.769,1.8228,3.1573,90.2222-55.1375,91.5418-52.8517,2.9289,5.073-90.8823,51.4167-87.9258,56.5375,1.4006,2.4259,88.7425-55.2789,90.4934-52.2464,3.6666,6.3507-100.4982,56.6321-97.3961,62.0052,1.7067,2.956,93.9127-58.5253,95.7767-55.2967,2.7834,4.8209-97.9354,56.245-95.3063,60.7986,1.4614,2.5312,95.3792-59.499,97.2982-56.1752,2.4897,4.3122-92.3003,53.5543-89.9149,57.6859,1.3548,2.3465,86.953-54.2822,88.7197-51.2223,2.2593,3.9132-96.5394,54.7785-93.6243,59.8275,1.9409,3.3617,91.5883-57.2093,93.4635-53.9612,3.2114,5.5623-95.4181,54.1503-92.5113,59.185,1.7495,3.0302,92.9937-56.9034,94.3852-54.4933,3.1736,5.4968-92.8359,53.4865-90.2873,57.9009,1.5244,2.6403,92.3719-55.9661,93.513-53.9897,3.5892,6.2166-96.0438,55.3018-93.4792,59.7437,1.2213,2.1153,91.8509-56.7543,93.4635-53.9612,3.4475,5.9712-95.8586,54.843-93.1417,59.5489,1.9185,3.3229,90.9627-55.1365,92.0969-53.1721,4.1001,7.1015-104.3719,56.8852-100.411,63.7458,1.4969,2.5927,98.0016-60.1707,99.5559-57.4786,3.5025,6.0666-98.0936,56.5202-95.5442,60.936,1.2136,2.102,89.001-55.5508,90.805-52.4263,3.6282,6.2843-89.3958,52.5003-87.2801,56.1647,1.8926,3.2782,91.9855-56.2209,93.3335-53.8861,2.8681,4.9676-100.8665,57.3328-97.9757,62.3398,1.2582,2.1793,97.0907-60.2927,98.9255-57.1147,2.9013,5.0251-103.8791,57.4904-100.3034,63.6837,1.7972,3.1128,94.1725-57.7206,95.6231-55.208,2.2777,3.945-96.4348,55.0671-93.6708,59.8544,1.6024,2.7754,97.7811-59.7303,99.1998-57.273,3.9164,6.7834-102.6895,56.9259-99.1668,63.0275,2.0876,3.6158,101.8634-64.3225,104.25-60.1888,3.3097,5.7326-106.8146,60.392-103.7614,65.6802,2.211,3.8296,110.8503-68.3167,112.7197-65.0787,2.8084,4.8643-105.1202,59.8944-102.2752,64.8221,1.6874,2.9227,110.9591-68.5241,112.8911-65.1777,3.8276,6.6296-108.6381,62.4288-106.011,66.979,1.8423,3.1909,116.7667-72.4174,118.9327-68.6658,3.3107,5.7343-109.7304,60.7701-106.112,67.0373,2.3742,4.1123,110.255-67.5867,111.9571-64.6385,2.6418,4.5758-106.622,60.7316-103.764,65.6817,2.2831,3.9545,116.0292-73.0846,118.6685-68.5133,4.2579,7.3749-105.6486,60.6115-102.982,65.2302,1.6902,2.9275,106.207-67.693,108.9672-62.9122,4.1144,7.1263-106.7478,59.5659-103.3537,65.4448,2.5623,4.438,112.4514-68.8359,114.1454-65.9019,3.472,6.0136-103.5304,56.701-99.7,63.3353,2.3927,4.1444,110.2229-70.009,112.9819-65.2302,3.9635,6.8649-106.1829,60.1539-103.1846,65.3471,2.7132,4.6994,112.1136-70.8024,114.7435-66.2472,2.6715,4.6271-109.1233,59.2732-105.0085,66.4002,2.6053,4.5126,105.6653-67.0556,108.2849-62.5183,3.439,5.9566-100.6707,56.1909-97.3344,61.9695,1.8409,3.1886,112.4744-69.6747,114.5258-66.1215,3.9256,6.7993-113.9376,63.2453-110.3392,69.4779,2.3058,3.9938,112.3554-68.6253,113.9822-65.8076,3.7352,6.4695-103.7362,56.9138-99.9465,63.4777,2.3105,4.0019,108.8437-67.1392,110.7049-63.9155,3.4098,5.906-103.6176,57.7742-100.2302,63.6414,2.7637,4.7868,110.2996-69.605,112.8645-65.1624,3.4163,5.9172-105.6361,60.4129-102.8866,65.1751,2.2587,3.9121,110.3194-69.193,112.701-65.0679,3.3309,5.7692-113.1125,61.328-108.8902,68.6413,4.7599,8.2444,163.5153-101.9569,166.7851-96.2934,6.1387,10.6326-159.0651,86.5115-154.2594,94.8352,4.1215,7.1386,157.6838-100.4594,161.763-93.3939,5.5371,9.5906-150.8764,84.3255-147.1713,90.7429,3.2295,5.5936,140.1972-90.1051,144.1646-83.2335,4.7036,8.1469-144.8579,81.6929-141.5175,87.4787,3.1688,5.4885,136.3499-85.0309,139.0819-80.299,3.7136,6.4322-132.8562,73.3875-128.9198,80.2054,2.0197,3.4982,130.3409-81.0314,132.8433-76.6971,4.6831,8.1113-121.3349,67.8094-117.8635,73.822,2.8984,5.0203,116.4545-73.8501,119.319-68.8888,3.3165,5.7443-114.1607,63.669-110.69,69.6804,1.9506,3.3785,106.5376-66.8331,108.8428-62.8404,3.1801,5.508-105.2787,59.2341-102.1081,64.7256,1.9396,3.3596,98.6636-61.1667,100.4837-58.0143,3.5488,6.1467-93.1327,52.9076-90.2592,57.8847,1.225,2.1217,90.3901-54.8995,91.5647-52.8649,2.2055,3.82-79.5783,44.3982-76.4087,49.8881,1.1531,1.9973,70.9107-42.9003,71.7594-41.4303,2.3239,4.0252-68.9158,39.3642-66.232,44.0126.5338.9246,67.3891-40.5935,68.1193-39.3287,1.938,3.3567-59.839,36.4414-58.1588,39.3515.406.7032,61.9957-36.7196,62.3968-36.0248" style="fill: none; stroke: #fff; stroke-linecap: round; stroke-linejoin: round; stroke-width: 3px;"/>
      </g>
      <g>
        <path d="M189.9598,690.2343c2.6743,4.632,113.878-69.8751,115.6653-66.7794,4.1832,7.2455-106.6799,59.2512-103.1664,65.3367,2.3448,4.0613,111.6509-68.364,113.3407-65.4373,3.8532,6.6739-109.1776,59.4391-105.1211,66.4652,2.5169,4.3593,109.9686-68.3654,112.0796-64.7092,3.0455,5.275-105.0002,57.8152-101.2849,64.2504,1.712,2.9653,111.4035-68.6564,113.2817-65.4032,3.2568,5.6409-108.9185,59.0577-104.7616,66.2576,2.1094,3.6536,111.6899-68.8132,113.5644-65.5664,3.5048,6.0704-109.1227,61.2391-105.8593,66.8914,2.5495,4.4158,117.5072-74.0853,120.2103-69.4034,2.6462,4.5834-108.1279,58.5507-103.9491,65.7886,1.6269,2.8178,108.5135-66.9793,110.388-63.7326,3.7362,6.4712-109.617,59.2989-105.3899,66.6204,1.7474,3.0266,114.8676-71.5958,117.1526-67.6381,2.6214,4.5404-108.4789,58.6495-104.2552,65.9652,1.9744,3.4198,106.563-66.6546,108.7845-62.8068,3.4724,6.0144-106.042,61.0077-103.4486,65.4996,1.779,3.0813,113.9637-69.6706,115.6411-66.7654,4.1224,7.1401-105.666,58.4091-102.0414,64.6871,2.6471,4.585,114.9498-71.718,117.2671-67.7042,3.621,6.2717-107.8245,58.98-103.9075,65.7645,2.7162,4.7046,112.5368-69.4009,114.4541-66.0801,2.6132,4.5262-106.5943,61.445-104.0521,65.848,1.9592,3.3934,104.4757-65.0993,106.5456-61.5141,3.4693,6.009-106.9965,59.709-103.6022,65.5882,2.6701,4.6247,117.9034-72.3759,119.7672-69.1477,3.3675,5.8326-113.3572,64.0266-110.2423,69.4219,1.9649,3.4032,114.1735-72.1576,116.8752-67.478,2.6733,4.6303-110.2822,63.454-107.688,67.9472,1.6806,2.9109,110.1003-68.5085,112.2403-64.8019,2.9089,5.0384-97.3597,54.2552-94.013,60.0519,1.9334,3.3487,94.5678-57.9367,96.0132-55.4333,2.9432,5.0977-89.934,49.8857-86.5517,55.7441,1.3886,2.4051,81.6835-49.5436,82.7156-47.7559,2.1017,3.6402-78.7893,44.8511-76.0131,49.6597.7983,1.3827,71.8294-43.785,72.8315-42.0493,1.8994,3.2898-61.3117,36.8813-59.4538,40.0992.7368,1.2762,65.4595-39.4703,66.1858-38.2124,1.9186,3.3232-66.5255,38.1526-63.9147,42.6747.4331.7502,62.5505-37.0588,62.9598-36.3499" style="fill: none; stroke: #fff; stroke-linecap: round; stroke-linejoin: round; stroke-width: 3px;"/>
        <path d="M140.7355,650.0649c.0849.147,41.8293-24.3853,41.9311-24.2089,1.5137,2.6219-52.8945,31.9116-50.989,35.212.6049,1.0478,65.8993-39.1943,66.3961-38.3338,2.3216,4.0211-67.3703,40.8514-65.7169,43.7152.999,1.7303,68.7452-41.1844,69.3923-40.0637,1.6956,2.9369-66.5181,40.2212-64.8049,43.1886,1.2705,2.2006,77.1042-47.3345,78.3246-45.2207,2.3856,4.1319-82.8011,45.9588-79.5016,51.6738,1.3235,2.2924,84.2537-51.8192,85.6286-49.4377,2.8473,4.9317-92.1294,52.4242-89.2974,57.3294,2.0358,3.5262,103.9098-64.6169,105.9123-61.1485,3.0674,5.3129-102.0474,58.802-99.4975,63.2184,2.3927,4.1443,107.334-67.0997,109.5555-63.2519,4.4729,7.7474-118.3113,66.4196-114.994,72.1653,2.5857,4.4785,122.3646-76.0092,124.6864-71.9877,4.676,8.0991-123.5615,70.5358-120.714,75.4678,2.5832,4.4743,124.9217-79.7252,128.2133-74.024,4.8005,8.3147-136.7813,75.4912-132.7746,82.431,2.4534,4.2494,144.7993-89.5,147.3541-85.075,4.7076,8.1537-145.037,79.402-140.6598,86.9835,3.2542,5.6364,147.4148-92.2415,150.5028-86.8929,6.1725,10.6912-161.9598,87.2852-156.7654,96.2821,3.7028,6.4134,155.1833-99.3429,159.4043-92.0321,4.8642,8.4251-158.3304,87.5242-154.1469,94.7702,1.3878,2.4038,92.2426-57.5009,94.0806-54.3174,2.9463,5.1032-103.9417,58.1311-100.6278,63.871,1.7598,3.048,98.8059-60.5403,100.3192-57.9193,3.2515,5.6318-101.4845,57.8897-98.6803,62.7466,1.8674,3.2345,97.6536-60.6738,99.5127-57.4537,3.9007,6.7562-96.5031,55.6436-93.9717,60.0281,1.734,3.0033,90.2151-55.1131,91.526-52.8426,3.0687,5.3152-93.3712,54.6176-91.1785,58.4154,1.3817,2.3932,86.1589-53.8659,87.9438-50.7744,3.4377,5.9542-91.8761,51.0329-88.505,56.8719,1.5941,2.761,88.3232-55.4803,90.2661-52.1151,3.4768,6.022-99.9799,54.8918-96.2538,61.3457,1.5354,2.6594,93.2727-57.7108,94.944-54.816,3.8774,6.7159-96.5662,55.6099-94.0045,60.047,1.9244,3.3332,93.8909-58.8529,95.9022-55.3692,2.5363,4.393-95.809,53.6404-92.5837,59.2268,1.9219,3.3289,92.7037-57.124,94.2632-54.4229,2.2479,3.8935-95.3082,53.8093-92.2813,59.0521,1.7092,2.9603,93.3848-57.5176,94.9444-54.8162,2.5521,4.4204-103.4117,56.9784-99.7312,63.3533,1.8606,3.2226,91.2064-55.7688,92.5534-53.4358,2.9616,5.1296-91.9271,51.9437-88.9376,57.1217,1.4296,2.4761,89.7177-55.9257,91.5048-52.8303,3.7036,6.4149-101.5413,57.1619-98.4078,62.5893,1.742,3.0172,94.8854-59.176,96.788-55.8806,2.8121,4.8707-98.9741,56.782-96.3179,61.3826,1.4917,2.5836,96.3507-60.1516,98.3094-56.759,2.5168,4.3593-93.3378,54.0931-90.9263,58.2698,1.3828,2.3951,87.9275-54.9293,89.7307-51.8061,2.283,3.9543-97.5813,55.3094-94.6356,60.4114,1.981,3.4312,92.5604-57.8601,94.4745-54.5449,3.2455,5.6214-96.4601,54.6806-93.5225,59.7687,1.7857,3.0929,93.9757-57.5368,95.3959-55.0769,3.2081,5.5565-93.8746,54.0223-91.2983,58.4846,1.5559,2.6949,93.359-56.5905,94.5236-54.5732,3.6269,6.2819-97.0816,55.8388-94.4901,60.3274,1.2466,2.1591,92.8281-57.3955,94.4741-54.5446,3.4838,6.0341-96.898,55.3769-94.1525,60.1324,1.9582,3.3916,91.9497-55.7605,93.1073-53.7555,4.1402,7.1711-105.4213,57.4015-101.4216,64.3293,1.5278,2.6463,98.9797-60.8096,100.5661-58.0619,3.5386,6.129-99.1303,57.0582-96.5547,61.5194,1.2387,2.1454,89.9739-56.1986,91.8151-53.0095,3.669,6.3548-90.4299,53.0425-88.2905,56.748,1.9318,3.3459,92.9676-56.8523,94.3435-54.4692,2.8969,5.0175-101.9057,57.8658-98.9859,62.9231,1.2842,2.2243,98.0626-60.9415,99.9354-57.6977,2.9297,5.0744-104.9242,58.0128-101.3135,64.2669,1.8343,3.1771,95.1522-58.3555,96.6328-55.791,2.3015,3.9864-97.4737,55.6-94.6808,60.4375,1.5562,2.6954,96.3221-58.7934,97.6998-56.407,3.8587,6.6835-101.138,56.1499-97.6671,62.1616,1.887,3.2684,96.2901-60.5753,98.4474-56.8386,3.1867,5.5196-102.7454,58.3047-99.8057,63.3964,2.0816,3.6055,107.0038-65.8433,108.7638-62.7948,2.7885,4.8298-104.3556,59.4996-101.5308,64.3923,1.6694,2.8915,110.2351-68.0584,112.1465-64.7478,3.8014,6.5842-107.8761,62.0304-105.267,66.5494,1.8226,3.1569,116.0456-71.9477,118.1885-68.2362,3.2881,5.6951-108.9621,60.3836-105.3684,66.608,2.3489,4.0683,109.5293-67.1257,111.2133-64.209,2.6234,4.5439-105.8588,60.337-103.0208,65.2526,2.2587,3.9123,115.3139-72.6066,117.925-68.084,4.228,7.323-104.887,60.215-102.2391,64.8013,1.6722,2.8963,105.4934-67.2129,108.2241-62.4832,4.0856,7.0764-105.9815,59.1784-102.6111,65.0161,2.535,4.3907,111.7267-68.3758,113.4026-65.473,3.4468,5.97-102.7604,56.3206-98.9579,62.9068,2.3672,4.1002,109.5099-69.5295,112.2396-64.8015,3.9357,6.8168-105.4201,59.762-102.4428,64.9189,2.6843,4.6494,111.3996-70.3255,114.0015-65.8188,2.6531,4.5953-108.3535,58.8942-104.2671,65.9721,2.5776,4.4645,104.9515-66.5791,107.5433-62.0901,3.4135,5.9124-99.9049,55.8059-96.5933,61.5417,1.8213,3.1546,111.7549-69.209,113.7845-65.6935,3.8998,6.7547-113.1733,62.8585-109.5985,69.0502,2.2813,3.9513,111.6318-68.1676,113.2413-65.3799,3.7082,6.4229-102.9685,56.5337-99.2062,63.0502,2.2859,3.9593,108.123-66.6774,109.9644-63.488,3.3853,5.8635-102.8533,57.3892-99.4902,63.2142,2.7343,4.7359,109.5866-69.1305,112.1244-64.735,3.3924,5.8757-104.8773,60.0193-102.147,64.7481,2.2347,3.8706,109.6049-68.7221,111.9612-64.6408,3.3088,5.731-112.3453,60.9496-108.151,68.2145,2.6938,4.6659,112.0774-68.9815,113.9279-65.7763,4.0708,7.0509-104.5897,58.7986-101.4028,64.3184,2.5412,4.4015,116.3915-73.0072,118.9067-68.6508,3.9532,6.8472-106.9607,61.4184-104.3155,66.0001,2.1869,3.7878,108.6225-68.9176,111.309-64.2643,3.6317,6.2902-111.2417,64.0427-108.6625,68.5098,2.3796,4.1217,114.1756-70.6573,116.2272-67.1038,3.0686,5.315-109.3183,61.3768-106.0657,67.0106,1.7022,2.9483,117.8803-72.9289,119.9894-69.2759,4.1837,7.2463-108.1114,61.0297-105.0102,66.4012,2.7832,4.8207,113.7153-72.0057,116.4659-67.2416,3.233,5.5997-111.2209,62.1734-107.8375,68.0335,2.027,3.5109,108.8679-68.3871,111.2634-64.238,3.2535,5.6353-107.7731,60.5051-104.5293,66.1235,2.0774,3.5981,102.21-63.5126,104.1592-60.1364,3.6891,6.3898-96.9225,54.8332-93.9353,60.0071,1.3328,2.3085,93.964-57.2017,95.242-54.988,2.308,3.9976-83.4035,46.2665-80.0866,52.0115,1.2867,2.2286,74.4914-45.1947,75.4384-43.5544,2.4479,4.2398-72.7385,41.2407-69.9116,46.137.6241,1.081,70.9463-42.9324,71.8-41.4538,2.055,3.5594-63.6218,38.3911-61.8401,41.4769.5331.9233,65.5526-39.063,66.0792-38.1509" style="fill: none; stroke: #fff; stroke-linecap: round; stroke-linejoin: round; stroke-width: 3px;"/>
      </g>
      <path d="M579.4554,651.9847c.0849.147,41.8292-24.3852,41.931-24.2089,1.5137,2.6218-52.8933,31.911-50.9878,35.2113.6049,1.0477,65.8982-39.1935,66.3949-38.3331,2.3215,4.021-67.3677,40.85-65.7143,43.7137.9989,1.7301,68.7427-41.1828,69.3897-40.0622,1.6955,2.9367-66.5141,40.2191-64.801,43.1864,1.2704,2.2004,77.1004-47.332,78.3207-45.2185,2.3854,4.1317-82.7956,45.9561-79.4962,51.6707,1.3234,2.2922,84.2485-51.8158,85.6233-49.4346,2.8471,4.9313-92.1224,52.4207-89.2906,57.3255,2.0356,3.5257,103.9033-64.6126,105.9055-61.1446,3.0291,5.2465-100.7392,58.1203-98.2212,62.4816,2.3461,4.0635,106.1009-66.2878,108.2792-62.515,4.223,7.3144-111.5503,62.9443-108.4184,68.3689,2.3605,4.0884,115.9912-71.8625,118.1108-68.1913,4.0478,7.011-106.6029,61.6283-104.138,65.8976,2.0824,3.6068,108.9838-69.0496,111.6372-64.4538,3.8585,6.6831-109.4184,61.509-106.198,67.087,1.7706,3.0668,118.9338-72.9245,120.7776-69.731,3.5061,6.0727-107.3427,60.2192-104.0827,65.8657,2.1259,3.6822,111.9084-69.2692,113.9258-65.7751,4.369,7.5673-113.8645,63.0224-110.1879,69.3905,2.2095,3.827,110.308-69.503,112.8267-65.1405,3.1091,5.3851-100.2428,57.4734-97.5688,62.1049,1.9048,3.2993,110.2637-69.4866,112.7864-65.1172,3.1946,5.5332-112.9263,62.6734-109.3331,68.897,2.4322,4.2126,117.2801-72.5416,119.3715-68.9192,3.5419,6.1348-110.7867,62.682-107.7321,67.9727,2.5809,4.4703,115.9953-72.9038,118.5647-68.4534,4.266,7.3889-105.7917,60.4589-103.0233,65.254,2.3964,4.1508,108.766-66.9801,110.5778-63.8421,3.3646,5.8277-102.6339,59.4771-100.2298,63.6412,1.9096,3.3076,104.5285-66.0464,106.9953-61.7738,3.7788,6.5451-101.2617,55.6791-97.556,62.0975,2.2031,3.8159,106.6322-67.7652,109.3173-63.1144,3.7949,6.5729-109.3716,59.5268-105.3045,66.5711,2.122,3.6754,111.6851-69.8159,113.995-65.815,4.2403,7.3445-105.8565,60.4199-103.055,65.2723,2.6597,4.6067,112.1732-71.1827,114.9529-66.3681,2.7772,4.8103-105.1656,58.3349-101.634,64.4519,2.6562,4.6007,111.1584-69.1547,113.3136-65.4216,2.4621,4.2645-104.6466,58.5347-101.3312,64.2771,2.3621,4.0913,111.8391-69.5482,113.9946-65.8148,2.7777,4.8111-112.7866,61.6399-108.7808,68.5781,2.5714,4.4538,109.7417-67.6586,111.6033-64.4342,3.2541,5.6362-101.2718,56.657-97.987,62.3463,1.9757,3.422,108.0847-68.1064,110.5545-63.8287,4.0352,6.9891-110.871,61.9006-107.457,67.8138,2.4074,4.1698,113.2079-71.4331,115.8374-66.8787,3.0691,5.3159-108.2657,61.5858-105.3668,66.607,2.0615,3.5706,114.6516-72.4456,117.3585-67.757,2.7601,4.7807-102.6195,58.9136-99.9749,63.4941,1.911,3.31,106.2875-67.1202,108.7796-62.8039,2.4953,4.3219-106.9035,60.0591-103.684,65.6355,2.5518,4.4198,106.3763-67.1103,108.8419-62.8399,3.3928,5.8766-100.9604,56.9709-97.8894,62.29,1.9879,3.4432,99.462-61.0757,101.043-58.3372,3.2198,5.5768-94.2269,54.2039-91.6412,58.6825,1.5666,2.7134,93.6937-56.8022,94.8664-54.7711,3.5911,6.22-96.097,55.3294-93.5311,59.7737,1.2226,2.1176,91.9006-56.7869,93.515-53.9909,3.4493,5.9744-95.9117,54.8703-93.1933,59.5787,1.9205,3.3264,91.0126-55.1681,92.148-53.2016,4.1021,7.105-104.4251,56.9114-100.4622,63.7754,1.4984,2.5954,98.0508-60.2028,99.6067-57.5079,3.5044,6.0697-98.1459,56.5473-95.5951,60.9654,1.2148,2.1041,89.0496-55.5831,90.8554-52.4554,3.6303,6.2878-89.4476,52.5274-87.3307,56.1939,1.8946,3.2815,92.0343-56.2523,93.3837-53.9151,2.8695,4.9701-100.9182,57.3594-98.026,62.3689,1.2595,2.1815,97.1386-60.3248,98.9754-57.1434,2.9027,5.0276-103.9308,57.5163-100.3534,63.7126,1.799,3.116,94.2205-57.7517,95.6726-55.2366,2.2788,3.9471-96.4859,55.0933-93.7205,59.8831,1.5077,2.6114,94.7921-57.8109,96.1269-55.4989,3.7982,6.5787-99.5106,55.336-96.0941,61.2535,1.6904,2.9279,90.8276-56.9025,92.7602-53.5551,3.0392,5.2641-97.8654,55.8014-95.0617,60.6574,1.5994,2.7703,92.6669-56.6244,94.0193-54.2821,2.5208,4.3661-94.0768,54.1915-91.5233,58.6145,1.1847,2.052,90.782-55.5456,92.1385-53.1962,3.449,5.9738-97.6265,56.6714-95.2593,60.7715,1.2935,2.2403,96.6596-59.3184,98.1803-56.6844,2.9835,5.1676-98.6213,55.182-95.3605,60.8299,1.6669,2.8872,90.0098-54.7271,91.2049-52.6572,2.375,4.1137-95.582,55.0243-93.0127,59.4744,1.603,2.7764,96.0634-59.7416,97.9164-56.5321,3.8247,6.6245-94.6262,54.8742-92.2308,59.023,1.1867,2.0554,86.2774-54.2877,88.2153-50.9311,3.6972,6.4038-95.6527,53.9548-92.6027,59.2377,1.799,3.1159,92.2043-55.9809,93.3937-53.9209,3.1074,5.3822-92.3774,51.1906-88.9492,57.1284,1.6799,2.9097,90.2933-56.6045,92.2304-53.2493,3.561,6.1678-95.1278,54.4744-92.4339,59.1403,1.905,3.2995,92.1457-57.4646,93.9922-54.2664,2.4048,4.1652-97.9621,53.7779-94.2581,60.1934,1.8292,3.1683,85.6945-53.7233,87.5338-50.5376,3.0694,5.3164-89.5619,50.6053-86.5841,55.7629,1.2925,2.2387,92.3345-56.6357,93.7748-54.1409,3.5521,6.1525-102.8452,57.6316-99.5891,63.2713,1.6189,2.8041,92.0892-55.8055,93.2314-53.8272,3.344,5.7919-92.5893,51.3948-89.1966,57.2712,1.6222,2.8097,88.6475-54.1985,89.9543-51.9351,3.0537,5.2892-92.514,52.1806-89.4804,57.435,1.9404,3.3609,90.3132-56.3013,92.1141-53.1821,3.0684,5.3147-94.6066,54.6915-92.1371,58.9689,1.5858,2.7467,90.2786-55.984,91.9507-53.0878,3.0099,5.2134-101.9563,55.8264-98.1408,62.4351,1.9117,3.3111,92.6041-56.4977,93.9173-54.2232,3.6794,6.3728-94.2728,53.55-91.3924,58.539,1.8034,3.1235,97.1109-60.189,98.8958-57.0975,3.5834,6.2066-96.7027,56.0674-94.305,60.2205,1.5519,2.688,89.3915-56.0131,91.298-52.7109,3.3051,5.7247-100.9991,58.6646-98.6518,62.7302,1.6887,2.9249,94.7601-58.0721,96.216-55.5503,2.7861,4.8257-99.008,56.1157-96.0548,61.2308,1.2079,2.0922,98.4813-60.3146,99.978-57.7223,3.7948,6.5727-97.812,55.7491-94.9991,60.6213,1.9751,3.4209,94.5024-59.0687,96.4543-55.6879,2.9401,5.0925-100.9031,56.9242-97.8263,62.2535,1.5443,2.6749,94.1537-58.5746,95.9788-55.4134,3.0724,5.3216-101.6236,57.3717-98.5604,62.6774,1.8067,3.1293,95.2404-58.9022,96.9357-55.9658,3.6313,6.2897-95.3617,54.0401-92.4213,59.133,1.2884,2.2315,92.4912-56.253,93.7267-54.1131,2.2657,3.9243-81.8241,45.4951-78.5681,51.1348,1.2315,2.133,73.0121-44.2468,73.9185-42.6769,2.3966,4.151-71.1562,40.464-68.3885,45.2576.5867,1.0162,69.473-41.9637,70.2756-40.5736,2.0065,3.4753-62.0521,37.582-60.3125,40.595.4803.8319,64.0757-38.09,64.5503-37.2681" style="fill: none; stroke: #fff; stroke-linecap: round; stroke-linejoin: round; stroke-width: 3px;"/>
    </g>
  </g>
</svg>